<?xml version="1.0" standalone="no"?>
<!DOCTYPE svg PUBLIC "-//W3C//DTD SVG 20010904//EN"
 "http://www.w3.org/TR/2001/REC-SVG-20010904/DTD/svg10.dtd">
<svg version="1.0" xmlns="http://www.w3.org/2000/svg"
 width="640.000000pt" height="300.000000pt" viewBox="0 0 640.000000 300.000000"
 preserveAspectRatio="xMidYMid meet">

<g transform="translate(0.000000,300.000000) scale(0.100000,-0.100000)"
fill="#000000" stroke="none">
<path d="M798 2884 c-34 -18 -35 -30 -5 -38 13 -3 35 -16 49 -29 25 -23 25
-27 30 -198 5 -145 9 -183 27 -229 11 -30 21 -56 21 -57 0 -1 -32 -22 -70 -47
-146 -95 -199 -164 -208 -271 -8 -110 42 -182 159 -226 71 -27 247 -42 409
-35 143 6 200 17 221 42 18 22 -12 75 -62 110 -37 26 -39 26 -86 10 -112 -36
-383 -45 -484 -16 -43 12 -87 53 -96 87 -9 39 14 99 56 143 70 74 365 191 601
240 129 26 150 34 150 59 0 41 -151 141 -213 141 -30 0 -67 -16 -67 -28 0 -4
14 -13 31 -19 17 -7 29 -17 27 -23 -3 -9 -261 -120 -280 -120 -5 0 -8 80 -8
179 0 146 3 181 15 191 8 7 15 21 15 31 0 32 -136 119 -185 118 -11 0 -32 -7
-47 -15z"/>
<path d="M1646 2386 l-7 -56 -72 0 c-59 0 -75 4 -94 22 l-23 21 0 -20 c0 -12
11 -35 25 -51 24 -29 27 -30 90 -24 l65 5 0 -66 c0 -65 -1 -67 -32 -83 -64
-33 -131 -89 -159 -133 -31 -48 -36 -79 -18 -114 34 -67 101 -74 195 -22 61
33 64 34 74 15 13 -24 33 -26 51 -4 10 12 10 22 2 45 -11 28 -8 35 27 82 22
28 53 79 71 114 l32 62 36 -14 36 -15 -30 26 c-16 14 -45 38 -64 55 -19 16
-45 29 -59 29 -24 0 -24 -1 -9 -18 31 -34 21 -47 -45 -59 -34 -7 -63 -11 -65
-9 -4 4 14 106 20 112 3 3 24 8 46 11 23 3 41 9 41 13 0 15 -40 42 -55 37 -11
-5 -15 0 -15 16 0 13 -13 36 -29 51 l-29 27 -6 -55z m128 -258 c-19 -55 -56
-120 -71 -125 -16 -6 -36 63 -31 107 3 30 8 37 38 47 19 7 45 12 57 12 21 1
21 0 7 -41z m-144 -55 c0 -21 5 -58 11 -83 10 -44 10 -46 -22 -72 -39 -33 -93
-46 -114 -28 -34 28 -9 104 56 174 52 57 69 59 69 9z"/>
<path d="M1985 2088 c29 -70 13 -148 -42 -209 -41 -45 -55 -54 -128 -80 -61
-22 -31 -25 48 -4 117 30 191 83 222 159 l17 39 -67 66 c-64 64 -65 65 -50 29z"/>
<path d="M740 770 l0 -730 665 0 665 0 0 730 0 730 -665 0 -665 0 0 -730z
m527 597 c85 -81 82 -92 -27 -100 -114 -9 -119 -17 -120 -165 0 -63 4 -112 9
-110 5 2 27 27 50 56 23 28 46 52 51 52 15 0 130 -111 130 -126 0 -11 -24 -14
-120 -14 l-120 0 0 -75 0 -74 43 -19 c109 -50 146 -150 72 -198 -25 -16 -27
-16 -53 3 -17 12 -30 35 -35 59 -5 21 -12 53 -17 69 -4 17 -8 -110 -9 -300
l-1 -330 -33 -22 c-38 -26 -65 -29 -93 -9 -18 14 -19 26 -15 258 l3 243 -45
-60 c-53 -72 -134 -151 -143 -142 -4 4 9 42 29 84 55 117 96 252 151 496 4 18
-2 19 -84 15 -81 -3 -91 -1 -104 18 -15 20 -14 20 95 16 l109 -5 0 127 0 126
-72 -6 c-109 -10 -113 -10 -116 1 -2 6 27 22 66 36 76 28 184 85 247 130 59
41 76 38 152 -34z m353 -3 c90 -42 150 -115 150 -183 0 -44 -44 -91 -84 -91
-49 0 -76 36 -93 122 -9 49 -23 87 -43 116 -17 23 -30 47 -30 52 0 17 44 10
100 -16z m323 -172 c42 -19 77 -41 77 -48 0 -6 -12 -16 -28 -22 -23 -8 -34
-26 -76 -138 -92 -240 -192 -420 -314 -561 -61 -70 -62 -73 -62 -130 0 -33 5
-64 12 -71 7 -7 45 -12 99 -12 71 0 91 4 111 20 30 23 53 77 63 145 8 55 23
90 33 80 4 -4 7 -50 7 -104 0 -96 1 -98 33 -135 35 -40 36 -62 3 -100 -33 -39
-73 -46 -251 -46 -98 0 -180 4 -191 10 -28 16 -49 63 -49 115 0 25 -2 45 -5
45 -3 0 -52 -27 -108 -60 -56 -33 -106 -59 -111 -57 -24 8 -12 27 39 61 30 20
84 65 120 100 l65 64 0 407 0 408 53 -6 c77 -10 117 -26 117 -48 0 -10 -9 -23
-20 -29 -19 -10 -20 -21 -20 -283 l0 -272 35 52 c80 120 186 397 216 570 7 37
16 73 21 79 12 16 38 9 131 -34z m-594 -448 c63 -156 16 -362 -79 -339 -62 15
-65 70 -9 181 36 72 41 88 41 153 1 87 13 88 47 5z m548 -31 c69 -40 137 -113
152 -162 25 -85 -14 -171 -77 -171 -55 0 -66 18 -74 126 -5 81 -12 108 -37
157 -27 52 -32 77 -15 77 3 0 26 -12 51 -27z"/>
<path d="M2158 860 c2 -387 1 -433 -14 -455 -16 -24 -16 -27 2 -41 38 -29 93
-54 99 -44 4 6 169 10 456 10 502 0 496 -1 392 64 -32 20 -62 36 -67 36 -5 0
-24 -18 -43 -40 l-35 -40 -339 0 -339 0 0 430 0 430 306 0 c201 0 303 3 299
10 -4 6 -115 10 -299 10 l-293 0 -54 30 c-30 16 -58 30 -64 30 -7 0 -9 -148
-7 -430z"/>
<path d="M2470 1126 l0 -66 -77 0 c-42 0 -73 -3 -70 -7 4 -3 38 -5 77 -4 l70
2 0 -59 c0 -72 14 -89 63 -76 31 9 32 11 35 72 l3 62 89 0 90 0 0 -53 c0 -74
16 -94 66 -82 l39 10 3 63 3 62 91 0 92 0 -29 30 -28 29 -19 -24 c-15 -20 -29
-25 -64 -25 l-44 0 0 40 c0 26 6 42 16 48 14 8 11 11 -17 20 -19 6 -51 13 -71
17 l-38 6 0 -66 0 -65 -90 0 -90 0 0 39 c0 23 6 44 15 51 22 19 8 27 -57 35
l-58 7 0 -66z"/>
<path d="M2570 901 l-23 -51 -119 0 c-72 0 -118 -4 -118 -10 0 -6 43 -10 110
-10 61 0 110 -2 110 -4 0 -21 -76 -130 -155 -221 l-60 -69 50 29 c28 15 65 39
83 53 l32 24 0 -100 c0 -72 4 -103 14 -111 19 -16 78 -2 83 21 5 16 17 18 137
18 120 0 132 -2 144 -20 13 -22 52 -26 83 -10 17 9 19 22 19 106 0 87 2 97 23
114 l22 18 -55 26 c-63 30 -83 32 -100 11 -10 -12 -39 -15 -145 -15 -72 0
-135 3 -138 6 -3 4 14 30 38 58 25 28 45 54 45 58 0 5 105 8 234 8 135 0 237
4 241 9 6 10 -100 91 -119 91 -6 0 -26 -18 -46 -41 l-35 -40 -125 3 -125 3 27
28 27 27 -37 16 c-20 9 -51 18 -67 21 -29 5 -32 2 -55 -46z m280 -316 l0 -95
-135 0 -135 0 0 95 0 95 135 0 135 0 0 -95z"/>
<path d="M3245 679 c-3 -90 -5 -218 -3 -284 l3 -120 49 2 c79 3 79 1 77 240
l-2 208 -58 59 -59 59 -7 -164z"/>
<path d="M2267 180 c-67 -53 -31 -160 54 -160 22 0 75 47 65 58 -4 3 -13 -4
-22 -16 -19 -28 -74 -30 -97 -4 -23 25 -22 85 1 105 10 10 31 17 47 17 16 0
37 -7 47 -17 10 -9 18 -11 18 -5 0 16 -41 42 -66 42 -12 0 -33 -9 -47 -20z"/>
<path d="M2547 180 c-31 -25 -41 -62 -27 -106 19 -56 75 -71 124 -33 22 17 26
28 26 69 0 41 -4 52 -26 69 -33 26 -64 27 -97 1z m96 -18 c25 -22 23 -86 -5
-112 -47 -43 -108 -10 -108 58 0 70 60 99 113 54z"/>
<path d="M3090 116 c0 -51 4 -86 10 -86 6 0 10 14 10 30 0 29 2 30 45 30 68 0
103 42 71 85 -10 13 -30 20 -75 23 l-61 4 0 -86z m125 29 c0 -29 -2 -30 -52
-33 l-53 -3 0 36 0 36 53 -3 c50 -3 52 -4 52 -33z"/>
<path d="M3727 190 c13 -13 56 -23 49 -12 -3 5 -17 12 -32 15 -14 2 -22 1 -17
-3z"/>
<path d="M2780 106 c0 -51 4 -86 10 -86 6 0 10 34 10 83 0 60 3 78 11 67 9
-13 10 -13 6 0 -2 8 -11 16 -20 18 -15 3 -17 -8 -17 -82z"/>
<path d="M2938 105 c2 -47 8 -85 13 -85 5 0 9 38 9 85 0 61 -3 85 -12 85 -10
0 -12 -22 -10 -85z"/>
<path d="M3421 168 c-4 -13 -18 -49 -30 -82 -12 -32 -19 -61 -17 -64 3 -2 10
7 15 22 9 23 16 26 56 26 39 0 45 -3 51 -25 3 -14 10 -25 15 -25 5 0 0 21 -10
47 -10 27 -24 65 -30 86 -14 42 -37 49 -50 15z m42 -33 l16 -45 -35 0 c-32 0
-35 2 -28 23 13 41 23 67 28 67 2 0 11 -20 19 -45z"/>
<path d="M3670 168 c-10 -27 19 -58 54 -58 55 0 76 -57 26 -71 -22 -6 -23 -7
-4 -8 28 -1 46 22 42 51 -2 18 -13 26 -55 37 -44 12 -53 18 -53 37 0 13 7 24
18 27 16 4 16 5 -1 6 -10 0 -22 -9 -27 -21z"/>
<path d="M2898 109 l-25 -63 -16 30 c-21 38 -21 27 -1 -22 l16 -38 29 74 c15
41 27 75 25 77 -2 2 -15 -24 -28 -58z"/>
<path d="M2820 145 c0 -5 5 -17 10 -25 5 -8 10 -10 10 -5 0 6 -5 17 -10 25 -5
8 -10 11 -10 5z"/>
<path d="M3672 44 c8 -9 23 -14 33 -12 12 2 7 7 -16 15 -30 12 -32 11 -17 -3z"/>
<path d="M3952 44 c9 -9 21 -15 27 -13 6 2 -2 10 -17 17 -25 11 -25 11 -10 -4z"/>
<path d="M4018 33 c6 -2 18 -2 25 0 6 3 1 5 -13 5 -14 0 -19 -2 -12 -5z"/>
</g>
</svg>
